<svg width="609" height="131" viewBox="0 0 609 131" fill="none" xmlns="http://www.w3.org/2000/svg">
<path d="M0 102.286V108.395C0 108.428 0.00857761 108.46 0.0100072 108.493C0.014296 108.597 0.0257334 108.699 0.0414591 108.802C0.0543255 108.891 0.0657619 108.979 0.0857764 109.065C0.107221 109.157 0.138672 109.244 0.168694 109.333C0.198716 109.422 0.228738 109.511 0.267337 109.597C0.305937 109.681 0.353114 109.76 0.398861 109.84C0.444609 109.92 0.490356 110 0.543251 110.075C0.597577 110.152 0.660479 110.222 0.723382 110.294C0.784855 110.364 0.844899 110.434 0.91209 110.497C0.976423 110.559 1.0479 110.613 1.11938 110.669C1.20087 110.732 1.28236 110.794 1.36957 110.85C1.39816 110.867 1.42103 110.891 1.44962 110.907L32.0061 128.486C32.0533 128.513 32.1033 128.533 32.1505 128.557C32.2648 128.615 32.3821 128.665 32.5036 128.706C32.5851 128.735 32.668 128.762 32.7509 128.784C32.8324 128.804 32.9139 128.819 32.9982 128.832C33.0897 128.847 33.1798 128.854 33.2713 128.86C33.3299 128.862 33.3871 128.877 33.4457 128.877C33.5057 128.877 33.5615 128.862 33.6201 128.86C33.7116 128.854 33.8031 128.847 33.8932 128.832C33.9775 128.819 34.059 128.804 34.1405 128.784C34.2234 128.764 34.3063 128.735 34.3878 128.706C34.5093 128.663 34.628 128.615 34.7409 128.557C34.7895 128.533 34.8381 128.513 34.8853 128.487L64.0007 111.736L93.1147 128.486C93.1619 128.513 93.2119 128.533 93.2591 128.557C93.372 128.615 93.4893 128.663 93.6108 128.706C93.6937 128.735 93.7752 128.762 93.8595 128.784C93.941 128.804 94.0225 128.819 94.1054 128.832C94.1969 128.847 94.287 128.854 94.3799 128.86C94.4399 128.862 94.4957 128.877 94.5557 128.877C94.6158 128.877 94.6715 128.862 94.7302 128.86C94.8216 128.854 94.9131 128.847 95.0032 128.832C95.0875 128.819 95.169 128.804 95.2505 128.784C95.3335 128.764 95.4164 128.735 95.4978 128.706C95.6194 128.663 95.738 128.615 95.851 128.557C95.8996 128.533 95.9482 128.513 95.9954 128.487L126.55 110.908C126.579 110.891 126.602 110.868 126.63 110.851C126.718 110.797 126.799 110.735 126.881 110.671C126.952 110.615 127.024 110.56 127.088 110.499C127.155 110.434 127.215 110.366 127.277 110.295C127.34 110.224 127.402 110.154 127.457 110.076C127.51 110.002 127.555 109.922 127.601 109.842C127.647 109.761 127.695 109.683 127.733 109.598C127.771 109.512 127.801 109.423 127.831 109.335C127.861 109.246 127.893 109.158 127.914 109.067C127.934 108.981 127.946 108.892 127.959 108.803C127.973 108.7 127.986 108.599 127.99 108.494C127.991 108.461 128 108.43 128 108.397V102.288V89.486V76.6814V73.2303C128 73.0556 127.979 72.8838 127.949 72.7148C127.94 72.6704 127.931 72.6274 127.923 72.5831C127.886 72.4227 127.84 72.2637 127.777 72.1134C127.77 72.0962 127.76 72.0804 127.753 72.0632C127.693 71.9272 127.621 71.7969 127.541 71.6723C127.517 71.6351 127.492 71.5979 127.467 71.5621C127.372 71.4289 127.271 71.3 127.155 71.184C127.154 71.1826 127.152 71.1812 127.151 71.1797C127.038 71.0666 126.911 70.9664 126.779 70.8718C126.741 70.8446 126.7 70.8189 126.66 70.7931C126.623 70.7702 126.589 70.7415 126.552 70.7201L97.4464 53.9689V49.5369V49.5355V36.7336V23.9304V20.4808C97.4464 20.3061 97.425 20.1342 97.3949 19.9653C97.3864 19.9209 97.3778 19.8779 97.3692 19.8335C97.332 19.6731 97.2863 19.5142 97.2234 19.3638C97.2162 19.3467 97.2062 19.3309 97.1991 19.3137C97.139 19.1777 97.0676 19.0474 96.9875 18.9228C96.9632 18.8856 96.9389 18.8483 96.9132 18.8125C96.8188 18.6794 96.7173 18.5505 96.6015 18.4345C96.6001 18.4331 96.5987 18.4316 96.5972 18.4302C96.4843 18.3171 96.357 18.2168 96.2255 18.1223C96.1869 18.0951 96.1469 18.0693 96.1069 18.0436C96.0697 18.0206 96.0354 17.992 95.9982 17.9705L65.4403 0.384484C64.5483 -0.128161 63.4518 -0.128161 62.5597 0.384484L32.0061 17.9705C31.9675 17.992 31.9346 18.0192 31.8974 18.0436C31.8574 18.0693 31.8174 18.0951 31.7788 18.1223C31.6458 18.2168 31.52 18.3171 31.4071 18.4302C31.4056 18.4316 31.4042 18.4331 31.4028 18.4345C31.287 18.5505 31.1855 18.6794 31.0911 18.8125C31.0654 18.8483 31.0411 18.8856 31.0168 18.9228C30.9367 19.0488 30.8638 19.1777 30.8038 19.3151C30.7966 19.3323 30.7866 19.3467 30.7795 19.3638C30.7166 19.5156 30.6708 19.6731 30.6337 19.835C30.6236 19.8779 30.6151 19.9223 30.6079 19.9667C30.5779 20.1357 30.5565 20.3075 30.5565 20.4822V23.9304V36.7336V49.5369V53.9703L1.45105 70.7201C1.41245 70.7415 1.37957 70.7687 1.3424 70.7931C1.30237 70.8189 1.26234 70.8446 1.22374 70.8718C1.09079 70.9664 0.964986 71.0666 0.852047 71.1797C0.850617 71.1812 0.849187 71.1826 0.847758 71.184C0.73196 71.3 0.630457 71.4289 0.536103 71.5621C0.508941 71.5979 0.484637 71.6351 0.460334 71.6723C0.380276 71.7983 0.307366 71.9272 0.247323 72.0647C0.240175 72.0819 0.231597 72.0962 0.224449 72.1134C0.161546 72.2652 0.115799 72.4227 0.0786289 72.5845C0.0686217 72.6274 0.0600438 72.6718 0.0528958 72.7162C0.022874 72.8852 0.0014295 73.057 0.0014295 73.2317V76.6799V89.4846L0 102.286ZM5.78277 78.2336L8.4833 79.7873L5.78277 82.4923V78.2336ZM5.78277 90.6832L13.6771 82.7758L16.602 84.4584L5.78277 95.2955V90.6832ZM36.3378 25.4841L39.0369 27.0378L36.3378 29.7413V25.4841ZM36.3378 37.9322L44.2321 30.0263L47.1571 31.7089L36.3392 42.546L36.3378 37.9322ZM122.219 78.2336V82.4909L119.518 79.7859L122.219 78.2336ZM114.326 82.7758L122.22 90.6832V95.2955L111.401 84.4584L114.326 82.7758ZM106.206 87.4469L122.219 103.486V106.72L121.344 107.222L103.282 89.1295L106.206 87.4469ZM113.226 111.894L97.4464 96.0874V92.486L98.0869 92.1166L116.15 110.21L113.226 111.894ZM105.106 116.565L97.4464 108.892V104.28L108.031 114.882L105.106 116.565ZM81.0788 114.881L91.6636 104.278V108.891L84.0038 116.563L81.0788 114.881ZM72.9601 110.211L91.0232 92.118L91.6636 92.486V96.0874L75.8851 111.894L72.9601 110.211ZM91.6636 117.082V120.971L89.1976 119.552L91.6636 117.082ZM97.4464 120.971V117.082L99.9125 119.552L97.4464 120.971ZM67.7663 107.222L66.8914 106.72V103.486L82.9044 87.4469L85.8294 89.1295L67.7663 107.222ZM61.1101 39.7365V43.3379L45.33 59.1426L42.4051 57.46L60.4682 39.367L61.1101 39.7365ZM61.1101 51.5288V56.1412L53.4502 63.8137L50.5252 62.1311L61.1101 51.5288ZM61.1101 64.332V68.2213L58.644 66.8022L61.1101 64.332ZM66.8914 95.2941V90.6817L74.7857 82.7744L77.7107 84.457L66.8914 95.2941ZM66.8914 82.4923V78.235L69.5919 79.7887L66.8914 82.4923ZM66.8914 68.2213V64.332L69.3575 66.8022L66.8914 68.2213ZM74.5512 63.8137L66.8914 56.1412V51.5288L77.4762 62.1311L74.5512 63.8137ZM82.6714 59.1426L66.8914 43.3379V39.7365L67.5319 39.3685L85.595 57.4614L82.6714 59.1426ZM91.6636 25.4841V29.7413L88.9645 27.0378L91.6636 25.4841ZM83.7708 30.0249L91.6651 37.9308V42.5432L80.8472 31.706L83.7708 30.0249ZM75.652 34.696L91.6636 50.7355V53.9689L90.7887 54.4715L72.7271 36.3785L75.652 34.696ZM37.2127 54.4715L36.3378 53.9689V50.7355L52.3494 34.696L55.2744 36.3785L37.2127 54.4715ZM61.1101 78.2336V82.4909L58.4095 79.7859L61.1101 78.2336ZM53.2158 82.7758L61.1101 90.6832V95.2955L50.2908 84.4584L53.2158 82.7758ZM45.097 87.4469L61.1101 103.486V106.72L60.2351 107.222L42.172 89.1295L45.097 87.4469ZM52.1164 111.894L36.3378 96.0874V92.486L36.9783 92.118L55.0414 110.211L52.1164 111.894ZM43.9976 116.565L36.3378 108.892V104.28L46.9226 114.882L43.9976 116.565ZM19.9702 114.881L30.555 104.278V108.891L22.8952 116.563L19.9702 114.881ZM11.8515 110.211L29.9146 92.118L30.555 92.4874V96.0889L14.775 111.894L11.8515 110.211ZM30.555 117.082V120.971L28.0889 119.552L30.555 117.082ZM36.3378 120.971V117.082L38.8039 119.552L36.3378 120.971ZM6.65626 107.222L5.78134 106.72V103.486L21.7944 87.4469L24.7194 89.1295L6.65626 107.222ZM94.5557 87.4698L69.8006 73.2274L94.5557 58.9851L119.307 73.2303L94.5557 87.4698ZM64.0007 6.23552L88.7515 20.4808L64.0007 34.7203L39.2499 20.4808L64.0007 6.23552ZM33.4457 58.9851L58.2008 73.2274L33.4457 87.4698L8.69488 73.2303L33.4457 58.9851Z" fill="white"/>
<path d="M199.5 48.1069L184.5 26.4569V52.5069H179.5V17.5069H184.5L199.5 39.1569L214.5 17.5069H219.5V52.5069H214.5V26.4569L199.5 48.1069ZM254.02 42.5069V27.5069C254.02 24.7569 251.77 22.5069 249.02 22.5069H234.02C231.27 22.5069 229.02 24.7569 229.02 27.5069V42.5069C229.02 45.2569 231.27 47.5069 234.02 47.5069H249.02C251.77 47.5069 254.02 45.2569 254.02 42.5069ZM259.02 27.5069V42.5069C259.02 48.0069 254.52 52.5069 249.02 52.5069H234.02C228.47 52.5069 224.02 48.0569 224.02 42.5069V27.5069C224.02 22.0069 228.52 17.5069 234.02 17.5069H249.02C254.32 17.5069 259.02 22.0569 259.02 27.5069ZM293.533 42.5069V27.5069C293.533 24.7569 291.283 22.5069 288.533 22.5069H268.533V47.5069H288.533C291.283 47.5069 293.533 45.2569 293.533 42.5069ZM298.533 27.5069V42.5069C298.533 47.8069 294.133 52.5069 288.533 52.5069H263.533V17.5069H288.533C293.883 17.5069 298.383 21.9569 298.533 27.5069ZM333.035 42.5069V17.5069H338.035V42.5069C338.035 47.8069 333.635 52.5069 328.035 52.5069H313.035C307.685 52.5069 303.035 48.1569 303.035 42.5069V17.5069H308.035V42.5069C308.035 45.2569 310.285 47.5069 313.035 47.5069H328.035C330.785 47.5069 333.035 45.2569 333.035 42.5069ZM348.025 17.5069V47.5069H378.025V52.5069H343.025V17.5069H348.025ZM385.525 22.5069V32.5069H410.525V37.5069H385.525V47.5069H415.525V52.5069H380.525V17.5069H415.525V22.5069H385.525Z" fill="#007EE8"/>
<path d="M189 79.5069H204C209.35 79.5069 213.85 83.9569 214 89.5069H209C209 86.7569 206.75 84.5069 204 84.5069H189C186.25 84.5069 184 86.7569 184 89.5069V104.507C184 107.257 186.25 109.507 189 109.507H204C206.75 109.507 209 107.257 209 104.507H214C214 109.807 209.6 114.507 204 114.507H189C183.65 114.507 179 110.157 179 104.507V89.5069C179 84.1069 183.4 79.6569 189 79.5069ZM247.477 104.507V89.5069C247.477 86.7569 245.227 84.5069 242.477 84.5069H227.477C224.727 84.5069 222.477 86.7569 222.477 89.5069V104.507C222.477 107.257 224.727 109.507 227.477 109.507H242.477C245.227 109.507 247.477 107.257 247.477 104.507ZM252.477 89.5069V104.507C252.477 110.007 247.977 114.507 242.477 114.507H227.477C221.927 114.507 217.477 110.057 217.477 104.507V89.5069C217.477 84.0069 221.977 79.5069 227.477 79.5069H242.477C247.777 79.5069 252.477 84.0569 252.477 89.5069ZM291.99 79.5069V114.507H286.99L261.99 87.6069V114.507H256.99V79.5069H261.99L286.99 106.007V79.5069H291.99ZM331.48 104.507C331.48 109.807 327.08 114.507 321.48 114.507H306.48C301.03 114.507 296.63 110.157 296.48 104.507H301.48C301.48 107.257 303.73 109.507 306.48 109.507H321.48C324.23 109.507 326.48 107.257 326.48 104.507C326.48 101.757 324.23 99.5069 321.48 99.5069H306.48C301.13 99.5069 296.48 95.1569 296.48 89.5069C296.48 84.2069 300.88 79.5069 306.48 79.5069H321.48C326.83 79.5069 331.33 83.9569 331.48 89.5069H326.48C326.48 86.7569 324.23 84.5069 321.48 84.5069H306.48C303.73 84.5069 301.48 86.7569 301.48 89.5069C301.48 92.2569 303.73 94.5069 306.48 94.5069H321.48C326.73 94.5069 331.48 98.9569 331.48 104.507ZM367.518 84.5069H352.518V114.507H347.518V84.5069H332.518V79.5069H367.518V84.5069ZM400.027 94.5069V89.5069C400.027 86.7569 397.777 84.5069 395.027 84.5069H375.027V99.5069H395.027C397.777 99.5069 400.027 97.2569 400.027 94.5069ZM405.027 114.507H401.477L391.477 104.507H375.027V114.507H370.027V79.5069H395.027C400.277 79.5069 405.027 83.9569 405.027 89.5069V94.5069C405.027 98.7569 402.227 102.607 398.077 104.007L405.027 110.957V114.507ZM439.529 104.507V79.5069H444.529V104.507C444.529 109.807 440.129 114.507 434.529 114.507H419.529C414.179 114.507 409.529 110.157 409.529 104.507V79.5069H414.529V104.507C414.529 107.257 416.779 109.507 419.529 109.507H434.529C437.279 109.507 439.529 107.257 439.529 104.507ZM459.02 79.5069H474.02C479.37 79.5069 483.87 83.9569 484.02 89.5069H479.02C479.02 86.7569 476.77 84.5069 474.02 84.5069H459.02C456.27 84.5069 454.02 86.7569 454.02 89.5069V104.507C454.02 107.257 456.27 109.507 459.02 109.507H474.02C476.77 109.507 479.02 107.257 479.02 104.507H484.02C484.02 109.807 479.62 114.507 474.02 114.507H459.02C453.67 114.507 449.02 110.157 449.02 104.507V89.5069C449.02 84.1069 453.42 79.6569 459.02 79.5069ZM519.52 84.5069H504.52V114.507H499.52V84.5069H484.52V79.5069H519.52V84.5069ZM522.029 114.507V79.5069H527.029V114.507H522.029ZM561.539 104.507V89.5069C561.539 86.7569 559.289 84.5069 556.539 84.5069H541.539C538.789 84.5069 536.539 86.7569 536.539 89.5069V104.507C536.539 107.257 538.789 109.507 541.539 109.507H556.539C559.289 109.507 561.539 107.257 561.539 104.507ZM566.539 89.5069V104.507C566.539 110.007 562.039 114.507 556.539 114.507H541.539C535.989 114.507 531.539 110.057 531.539 104.507V89.5069C531.539 84.0069 536.039 79.5069 541.539 79.5069H556.539C561.839 79.5069 566.539 84.0569 566.539 89.5069ZM606.053 79.5069V114.507H601.053L576.053 87.6069V114.507H571.053V79.5069H576.053L601.053 106.007V79.5069H606.053Z" fill="#DCEFFF"/>
</svg>
