<svg width="238" height="46" viewBox="0 0 238 46" fill="none" xmlns="http://www.w3.org/2000/svg">
<path d="M74 16.24L68 7.58V18H66V4H68L74 12.66L80 4H82V18H80V7.58L74 16.24ZM95.8078 14V8C95.8078 6.9 94.9078 6 93.8078 6H87.8078C86.7078 6 85.8078 6.9 85.8078 8V14C85.8078 15.1 86.7078 16 87.8078 16H93.8078C94.9078 16 95.8078 15.1 95.8078 14ZM97.8078 8V14C97.8078 16.2 96.0078 18 93.8078 18H87.8078C85.5878 18 83.8078 16.22 83.8078 14V8C83.8078 5.8 85.6078 4 87.8078 4H93.8078C95.9278 4 97.8078 5.82 97.8078 8ZM111.613 14V8C111.613 6.9 110.713 6 109.613 6H101.613V16H109.613C110.713 16 111.613 15.1 111.613 14ZM113.613 8V14C113.613 16.12 111.853 18 109.613 18H99.6133V4H109.613C111.753 4 113.553 5.78 113.613 8ZM127.414 14V4H129.414V14C129.414 16.12 127.654 18 125.414 18H119.414C117.274 18 115.414 16.26 115.414 14V4H117.414V14C117.414 15.1 118.314 16 119.414 16H125.414C126.514 16 127.414 15.1 127.414 14ZM133.41 4V16H145.41V18H131.41V4H133.41ZM148.41 6V10H158.41V12H148.41V16H160.41V18H146.41V4H160.41V6H148.41Z" fill="#33A2FF"/>
<path d="M69.8 27H75.8C77.94 27 79.74 28.78 79.8 31H77.8C77.8 29.9 76.9 29 75.8 29H69.8C68.7 29 67.8 29.9 67.8 31V37C67.8 38.1 68.7 39 69.8 39H75.8C76.9 39 77.8 38.1 77.8 37H79.8C79.8 39.12 78.04 41 75.8 41H69.8C67.66 41 65.8 39.26 65.8 37V31C65.8 28.84 67.56 27.06 69.8 27ZM93.1906 37V31C93.1906 29.9 92.2906 29 91.1906 29H85.1906C84.0906 29 83.1906 29.9 83.1906 31V37C83.1906 38.1 84.0906 39 85.1906 39H91.1906C92.2906 39 93.1906 38.1 93.1906 37ZM95.1906 31V37C95.1906 39.2 93.3906 41 91.1906 41H85.1906C82.9706 41 81.1906 39.22 81.1906 37V31C81.1906 28.8 82.9906 27 85.1906 27H91.1906C93.3106 27 95.1906 28.82 95.1906 31ZM110.996 27V41H108.996L98.9961 30.24V41H96.9961V27H98.9961L108.996 37.6V27H110.996ZM126.792 37C126.792 39.12 125.032 41 122.792 41H116.792C114.612 41 112.852 39.26 112.792 37H114.792C114.792 38.1 115.692 39 116.792 39H122.792C123.892 39 124.792 38.1 124.792 37C124.792 35.9 123.892 35 122.792 35H116.792C114.652 35 112.792 33.26 112.792 31C112.792 28.88 114.552 27 116.792 27H122.792C124.932 27 126.732 28.78 126.792 31H124.792C124.792 29.9 123.892 29 122.792 29H116.792C115.692 29 114.792 29.9 114.792 31C114.792 32.1 115.692 33 116.792 33H122.792C124.892 33 126.792 34.78 126.792 37ZM141.207 29H135.207V41H133.207V29H127.207V27H141.207V29ZM154.211 33V31C154.211 29.9 153.311 29 152.211 29H144.211V35H152.211C153.311 35 154.211 34.1 154.211 33ZM156.211 41H154.791L150.791 37H144.211V41H142.211V27H152.211C154.311 27 156.211 28.78 156.211 31V33C156.211 34.7 155.091 36.24 153.431 36.8L156.211 39.58V41ZM170.012 37V27H172.012V37C172.012 39.12 170.252 41 168.012 41H162.012C159.872 41 158.012 39.26 158.012 37V27H160.012V37C160.012 38.1 160.912 39 162.012 39H168.012C169.112 39 170.012 38.1 170.012 37ZM177.808 27H183.808C185.948 27 187.748 28.78 187.808 31H185.808C185.808 29.9 184.908 29 183.808 29H177.808C176.708 29 175.808 29.9 175.808 31V37C175.808 38.1 176.708 39 177.808 39H183.808C184.908 39 185.808 38.1 185.808 37H187.808C187.808 39.12 186.048 41 183.808 41H177.808C175.668 41 173.808 39.26 173.808 37V31C173.808 28.84 175.568 27.06 177.808 27ZM202.008 29H196.008V41H194.008V29H188.008V27H202.008V29ZM203.012 41V27H205.012V41H203.012ZM218.816 37V31C218.816 29.9 217.916 29 216.816 29H210.816C209.716 29 208.816 29.9 208.816 31V37C208.816 38.1 209.716 39 210.816 39H216.816C217.916 39 218.816 38.1 218.816 37ZM220.816 31V37C220.816 39.2 219.016 41 216.816 41H210.816C208.596 41 206.816 39.22 206.816 37V31C206.816 28.8 208.616 27 210.816 27H216.816C218.936 27 220.816 28.82 220.816 31ZM236.621 27V41H234.621L224.621 30.24V41H222.621V27H224.621L234.621 37.6V27H236.621Z" fill="white"/>
<path d="M0 33.1698V34.7925C0 34.8012 0.00227843 34.8096 0.00265817 34.8183C0.00379739 34.8461 0.00683542 34.8731 0.0110126 34.9005C0.0144302 34.9241 0.017468 34.9477 0.0227844 34.9705C0.0284805 34.9948 0.0368348 35.018 0.0448093 35.0416C0.0527838 35.0652 0.0607585 35.0888 0.0710114 35.1116C0.0812644 35.1341 0.0937958 35.155 0.105948 35.1763C0.118099 35.1976 0.130251 35.2189 0.144301 35.2387C0.158731 35.2592 0.17544 35.2778 0.192148 35.2969C0.208477 35.3155 0.224426 35.3341 0.242274 35.3509C0.259362 35.3672 0.278349 35.3817 0.297336 35.3965C0.318981 35.4132 0.340627 35.4296 0.363791 35.4444C0.371386 35.449 0.377461 35.4555 0.385056 35.4596L8.50161 40.129C8.51415 40.1363 8.52744 40.1416 8.53997 40.1481C8.57035 40.1633 8.60149 40.1766 8.63376 40.1876C8.65541 40.1952 8.67743 40.2024 8.69946 40.2082C8.7211 40.2135 8.74275 40.2177 8.76515 40.2211C8.78946 40.2249 8.81338 40.2268 8.83768 40.2283C8.85325 40.2291 8.86844 40.2329 8.88401 40.2329C8.89996 40.2329 8.91477 40.2291 8.93034 40.2283C8.95464 40.2268 8.97895 40.2249 9.00287 40.2211C9.02528 40.2177 9.04692 40.2135 9.06857 40.2082C9.09059 40.2028 9.11262 40.1952 9.13426 40.1876C9.16654 40.1762 9.19806 40.1633 9.22806 40.1481C9.24097 40.1416 9.25388 40.1363 9.26641 40.1294L17.0002 35.6799L24.7336 40.129C24.7461 40.1363 24.7594 40.1416 24.7719 40.1481C24.8019 40.1633 24.8331 40.1762 24.8654 40.1876C24.8874 40.1952 24.909 40.2024 24.9314 40.2082C24.9531 40.2135 24.9747 40.2177 24.9967 40.2211C25.0211 40.2249 25.045 40.2268 25.0697 40.2283C25.0856 40.2291 25.1004 40.2329 25.1164 40.2329C25.1323 40.2329 25.1471 40.2291 25.1627 40.2283C25.187 40.2268 25.2113 40.2249 25.2352 40.2211C25.2576 40.2177 25.2793 40.2135 25.3009 40.2082C25.3229 40.2028 25.345 40.1952 25.3666 40.1876C25.3989 40.1762 25.4304 40.1633 25.4604 40.1481C25.4733 40.1416 25.4862 40.1363 25.4988 40.1294L33.6149 35.46C33.6225 35.4555 33.6286 35.4494 33.6362 35.4448C33.6594 35.4304 33.681 35.414 33.7027 35.3969C33.7217 35.3821 33.7406 35.3676 33.7577 35.3512C33.7756 35.3341 33.7915 35.3159 33.8079 35.2972C33.8246 35.2782 33.8413 35.2596 33.8557 35.239C33.8698 35.2193 33.8819 35.198 33.8941 35.1767C33.9062 35.1554 33.9191 35.1344 33.929 35.112C33.9392 35.0892 33.9472 35.0656 33.9552 35.042C33.9632 35.0184 33.9715 34.9952 33.9772 34.9709C33.9825 34.9481 33.9856 34.9245 33.989 34.9009C33.9928 34.8735 33.9962 34.8465 33.9973 34.8187C33.9977 34.81 34 34.8016 34 34.7929V33.1702V29.7697V26.3685V25.4518C34 25.4054 33.9943 25.3598 33.9863 25.3149C33.9841 25.3031 33.9818 25.2917 33.9795 25.2799C33.9696 25.2373 33.9575 25.1951 33.9408 25.1551C33.9389 25.1505 33.9362 25.1464 33.9343 25.1418C33.9184 25.1057 33.8994 25.0711 33.8781 25.038C33.8717 25.0281 33.8652 25.0182 33.8584 25.0087C33.8333 24.9733 33.8063 24.9391 33.7756 24.9083C33.7752 24.9079 33.7748 24.9075 33.7744 24.9071C33.7444 24.8771 33.7106 24.8504 33.6757 24.8253C33.6655 24.8181 33.6548 24.8113 33.6442 24.8044C33.6343 24.7983 33.6252 24.7907 33.6153 24.785L25.8842 20.3355V19.1582V19.1579V15.7574V12.3565V11.4402C25.8842 11.3938 25.8785 11.3482 25.8705 11.3033C25.8683 11.2915 25.866 11.2801 25.8637 11.2683C25.8538 11.2257 25.8417 11.1835 25.825 11.1435C25.8231 11.139 25.8204 11.1348 25.8185 11.1302C25.8026 11.0941 25.7836 11.0595 25.7623 11.0264C25.7558 11.0165 25.7494 11.0066 25.7426 10.9971C25.7175 10.9617 25.6905 10.9275 25.6598 10.8967C25.6594 10.8963 25.659 10.8959 25.6586 10.8955C25.6286 10.8655 25.5948 10.8388 25.5599 10.8137C25.5497 10.8065 25.539 10.7997 25.5284 10.7928C25.5185 10.7867 25.5094 10.7791 25.4995 10.7734L17.3826 6.10213C17.1456 5.96596 16.8544 5.96596 16.6174 6.10213L8.50161 10.7734C8.49136 10.7791 8.48263 10.7864 8.47275 10.7928C8.46212 10.7997 8.45149 10.8065 8.44124 10.8137C8.40592 10.8388 8.3725 10.8655 8.3425 10.8955C8.34212 10.8959 8.34174 10.8963 8.34136 10.8967C8.31061 10.9275 8.28364 10.9617 8.25858 10.9971C8.25175 11.0066 8.24529 11.0165 8.23883 11.0264C8.21757 11.0598 8.1982 11.0941 8.18225 11.1306C8.18035 11.1352 8.1777 11.139 8.1758 11.1435C8.15909 11.1838 8.14694 11.2257 8.13706 11.2687C8.13441 11.2801 8.13213 11.2919 8.13023 11.3037C8.12225 11.3485 8.11656 11.3942 8.11656 11.4406V12.3565V15.7574V19.1582V20.3359L0.385436 24.785C0.375183 24.7907 0.366449 24.7979 0.356576 24.8044C0.345943 24.8113 0.33531 24.8181 0.325057 24.8253C0.289741 24.8504 0.256324 24.8771 0.226325 24.9071C0.225945 24.9075 0.225565 24.9079 0.225186 24.9083C0.194427 24.9391 0.167465 24.9733 0.142402 25.0087C0.135187 25.0182 0.128732 25.0281 0.122276 25.038C0.101011 25.0714 0.0816442 25.1057 0.0656951 25.1422C0.0637964 25.1467 0.0615179 25.1505 0.0596192 25.1551C0.0429106 25.1954 0.030759 25.2373 0.0208858 25.2803C0.0182276 25.2917 0.0159491 25.3035 0.0140504 25.3152C0.0060759 25.3601 0.000379712 25.4058 0.000379712 25.4522V26.3681V29.7694L0 33.1698ZM1.53605 26.7808L2.25338 27.1935L1.53605 27.912V26.7808ZM1.53605 30.0877L3.63297 27.9873L4.40992 28.4343L1.53605 31.3129V30.0877ZM9.65223 12.7692L10.3692 13.1819L9.65223 13.9V12.7692ZM9.65223 16.0757L11.7491 13.9757L12.5261 14.4227L9.65261 17.3013L9.65223 16.0757ZM32.4643 26.7808V27.9116L31.747 27.1931L32.4643 26.7808ZM30.3678 27.9873L32.4647 30.0877V31.3129L29.5908 28.4343L30.3678 27.9873ZM28.2109 29.2281L32.4643 33.4886V34.3475L32.2319 34.481L27.4343 29.675L28.2109 29.2281ZM30.0758 35.7217L25.8842 31.5232V30.5666L26.0543 30.4685L30.8523 35.2744L30.0758 35.7217ZM27.9188 36.9625L25.8842 34.9245V33.6993L28.6958 36.5155L27.9188 36.9625ZM21.5366 36.5152L24.3482 33.6989V34.9241L22.3135 36.9621L21.5366 36.5152ZM19.38 35.2748L24.178 30.4688L24.3482 30.5666V31.5232L20.157 35.7217L19.38 35.2748ZM24.3482 37.0998V38.1329L23.6931 37.7559L24.3482 37.0998ZM25.8842 38.1329V37.0998L26.5393 37.7559L25.8842 38.1329ZM18.0004 34.481L17.768 34.3475V33.4886L22.0215 29.2281L22.7984 29.675L18.0004 34.481ZM16.2324 16.555V17.5116L12.0408 21.7097L11.2638 21.2628L16.0619 16.4569L16.2324 16.555ZM16.2324 19.6873V20.9125L14.1977 22.9505L13.4208 22.5036L16.2324 19.6873ZM16.2324 23.0882V24.1213L15.5773 23.7443L16.2324 23.0882ZM17.768 31.3125V30.0873L19.8649 27.9869L20.6419 28.4339L17.768 31.3125ZM17.768 27.912V26.7812L18.4854 27.1939L17.768 27.912ZM17.768 24.1213V23.0882L18.4231 23.7443L17.768 24.1213ZM19.8027 22.9505L17.768 20.9125V19.6873L20.5796 22.5036L19.8027 22.9505ZM21.9596 21.7097L17.768 17.5116V16.555L17.9381 16.4573L22.7362 21.2632L21.9596 21.7097ZM24.3482 12.7692V13.9L23.6312 13.1819L24.3482 12.7692ZM22.2516 13.9754L24.3485 16.0754V17.3005L21.475 14.4219L22.2516 13.9754ZM20.0951 15.2161L24.3482 19.4766V20.3355L24.1158 20.469L19.3181 15.663L20.0951 15.2161ZM9.88463 20.469L9.65223 20.3355V19.4766L13.9053 15.2161L14.6823 15.663L9.88463 20.469ZM16.2324 26.7808V27.9116L15.515 27.1931L16.2324 26.7808ZM14.1354 27.9873L16.2324 30.0877V31.3129L13.3585 28.4343L14.1354 27.9873ZM11.9789 29.2281L16.2324 33.4886V34.3475L16 34.481L11.2019 29.675L11.9789 29.2281ZM13.8434 35.7217L9.65223 31.5232V30.5666L9.82235 30.4688L14.6204 35.2748L13.8434 35.7217ZM11.6869 36.9625L9.65223 34.9245V33.6993L12.4638 36.5155L11.6869 36.9625ZM5.30459 36.5152L8.11618 33.6989V34.9241L6.08153 36.9621L5.30459 36.5152ZM3.14804 35.2748L7.94605 30.4688L8.11618 30.567V31.5236L3.92461 35.7217L3.14804 35.2748ZM8.11618 37.0998V38.1329L7.46113 37.7559L8.11618 37.0998ZM9.65223 38.1329V37.0998L10.3073 37.7559L9.65223 38.1329ZM1.76807 34.481L1.53567 34.3475V33.4886L5.78913 29.2281L6.56608 29.675L1.76807 34.481ZM25.1164 29.2342L18.5408 25.451L25.1164 21.6679L31.6908 25.4518L25.1164 29.2342ZM17.0002 7.65631L23.5746 11.4402L17.0002 15.2226L10.4258 11.4402L17.0002 7.65631ZM8.88401 21.6679L15.4596 25.451L8.88401 29.2342L2.30958 25.4518L8.88401 21.6679Z" fill="white"/>
</svg>
