<svg width="331" height="35" viewBox="0 0 331 35" fill="none" xmlns="http://www.w3.org/2000/svg">
<path d="M163.8 12H169.8C171.94 12 173.74 13.78 173.8 16H171.8C171.8 14.9 170.9 14 169.8 14H163.8C162.7 14 161.8 14.9 161.8 16V22C161.8 23.1 162.7 24 163.8 24H169.8C170.9 24 171.8 23.1 171.8 22H173.8C173.8 24.12 172.04 26 169.8 26H163.8C161.66 26 159.8 24.26 159.8 22V16C159.8 13.84 161.56 12.06 163.8 12Z" fill="white"/>
<path d="M187.191 22V16C187.191 14.9 186.291 14 185.191 14H179.191C178.091 14 177.191 14.9 177.191 16V22C177.191 23.1 178.091 24 179.191 24H185.191C186.291 24 187.191 23.1 187.191 22ZM189.191 16V22C189.191 24.2 187.391 26 185.191 26H179.191C176.971 26 175.191 24.22 175.191 22V16C175.191 13.8 176.991 12 179.191 12H185.191C187.311 12 189.191 13.82 189.191 16Z" fill="white"/>
<path d="M204.996 12V26H202.996L192.996 15.24V26H190.996V12H192.996L202.996 22.6V12H204.996Z" fill="white"/>
<path d="M220.792 22C220.792 24.12 219.032 26 216.792 26H210.792C208.612 26 206.852 24.26 206.792 22H208.792C208.792 23.1 209.692 24 210.792 24H216.792C217.892 24 218.792 23.1 218.792 22C218.792 20.9 217.892 20 216.792 20H210.792C208.652 20 206.792 18.26 206.792 16C206.792 13.88 208.552 12 210.792 12H216.792C218.932 12 220.732 13.78 220.792 16H218.792C218.792 14.9 217.892 14 216.792 14H210.792C209.692 14 208.792 14.9 208.792 16C208.792 17.1 209.692 18 210.792 18H216.792C218.892 18 220.792 19.78 220.792 22Z" fill="white"/>
<path d="M235.207 14H229.207V26H227.207V14H221.207V12H235.207V14Z" fill="white"/>
<path d="M248.211 18V16C248.211 14.9 247.311 14 246.211 14H238.211V20H246.211C247.311 20 248.211 19.1 248.211 18ZM250.211 26H248.791L244.791 22H238.211V26H236.211V12H246.211C248.311 12 250.211 13.78 250.211 16V18C250.211 19.7 249.091 21.24 247.431 21.8L250.211 24.58V26Z" fill="white"/>
<path d="M264.012 22V12H266.012V22C266.012 24.12 264.252 26 262.012 26H256.012C253.872 26 252.012 24.26 252.012 22V12H254.012V22C254.012 23.1 254.912 24 256.012 24H262.012C263.112 24 264.012 23.1 264.012 22Z" fill="white"/>
<path d="M271.808 12H277.808C279.948 12 281.748 13.78 281.808 16H279.808C279.808 14.9 278.908 14 277.808 14H271.808C270.708 14 269.808 14.9 269.808 16V22C269.808 23.1 270.708 24 271.808 24H277.808C278.908 24 279.808 23.1 279.808 22H281.808C281.808 24.12 280.048 26 277.808 26H271.808C269.668 26 267.808 24.26 267.808 22V16C267.808 13.84 269.568 12.06 271.808 12Z" fill="white"/>
<path d="M296.008 14H290.008V26H288.008V14H282.008V12H296.008V14Z" fill="white"/>
<path d="M297.012 26V12H299.012V26H297.012Z" fill="white"/>
<path d="M312.816 22V16C312.816 14.9 311.916 14 310.816 14H304.816C303.716 14 302.816 14.9 302.816 16V22C302.816 23.1 303.716 24 304.816 24H310.816C311.916 24 312.816 23.1 312.816 22ZM314.816 16V22C314.816 24.2 313.016 26 310.816 26H304.816C302.596 26 300.816 24.22 300.816 22V16C300.816 13.8 302.616 12 304.816 12H310.816C312.936 12 314.816 13.82 314.816 16Z" fill="white"/>
<path d="M330.621 12V26H328.621L318.621 15.24V26H316.621V12H318.621L328.621 22.6V12H330.621Z" fill="white"/>
<path d="M64 24.24L58 15.58V26H56V12H58L64 20.66L70 12H72V26H70V15.58L64 24.24Z" fill="#007EE8"/>
<path d="M85.8078 22V16C85.8078 14.9 84.9078 14 83.8078 14H77.8078C76.7078 14 75.8078 14.9 75.8078 16V22C75.8078 23.1 76.7078 24 77.8078 24H83.8078C84.9078 24 85.8078 23.1 85.8078 22ZM87.8078 16V22C87.8078 24.2 86.0078 26 83.8078 26H77.8078C75.5878 26 73.8078 24.22 73.8078 22V16C73.8078 13.8 75.6078 12 77.8078 12H83.8078C85.9278 12 87.8078 13.82 87.8078 16Z" fill="#007EE8"/>
<path d="M101.613 22V16C101.613 14.9 100.713 14 99.6133 14H91.6133V24H99.6133C100.713 24 101.613 23.1 101.613 22ZM103.613 16V22C103.613 24.12 101.853 26 99.6133 26H89.6133V12H99.6133C101.753 12 103.553 13.78 103.613 16Z" fill="#007EE8"/>
<path d="M117.414 22V12H119.414V22C119.414 24.12 117.654 26 115.414 26H109.414C107.274 26 105.414 24.26 105.414 22V12H107.414V22C107.414 23.1 108.314 24 109.414 24H115.414C116.514 24 117.414 23.1 117.414 22Z" fill="#007EE8"/>
<path d="M123.41 12V24H135.41V26H121.41V12H123.41Z" fill="#007EE8"/>
<path d="M138.41 14V18H148.41V20H138.41V24H150.41V26H136.41V12H150.41V14H138.41Z" fill="#007EE8"/>
<path d="M0 28.7925C0 28.8012 0.00227843 28.8096 0.00265817 28.8183C0.00379739 28.8461 0.00683542 28.8731 0.0110126 28.9005C0.0144302 28.9241 0.017468 28.9477 0.0227844 28.9705C0.0284805 28.9948 0.0368348 29.018 0.0448093 29.0416C0.0527838 29.0652 0.0607585 29.0888 0.0710114 29.1116C0.0812644 29.1341 0.0937958 29.155 0.105948 29.1763C0.118099 29.1976 0.130251 29.2189 0.144301 29.2387C0.158731 29.2592 0.17544 29.2778 0.192148 29.2969C0.208477 29.3155 0.224426 29.3341 0.242274 29.3509C0.259362 29.3672 0.278349 29.3817 0.297336 29.3965C0.318981 29.4132 0.340627 29.4296 0.363791 29.4444C0.371386 29.449 0.377461 29.4555 0.385056 29.4596L8.50161 34.129C8.51415 34.1363 8.52744 34.1416 8.53997 34.1481C8.57035 34.1633 8.60149 34.1766 8.63376 34.1876C8.65541 34.1952 8.67743 34.2024 8.69946 34.2082C8.7211 34.2135 8.74275 34.2177 8.76515 34.2211C8.78946 34.2249 8.81338 34.2268 8.83768 34.2283C8.85325 34.2291 8.86844 34.2329 8.88401 34.2329C8.89996 34.2329 8.91477 34.2291 8.93034 34.2283C8.95464 34.2268 8.97895 34.2249 9.00287 34.2211C9.02528 34.2177 9.04692 34.2135 9.06857 34.2082C9.09059 34.2028 9.11262 34.1952 9.13426 34.1876C9.16654 34.1762 9.19806 34.1633 9.22806 34.1481C9.24097 34.1416 9.25388 34.1363 9.26641 34.1294L17.0002 29.6799L24.7336 34.129C24.7461 34.1363 24.7594 34.1416 24.7719 34.1481C24.8019 34.1633 24.8331 34.1762 24.8654 34.1876C24.8874 34.1952 24.909 34.2024 24.9314 34.2082C24.9531 34.2135 24.9747 34.2177 24.9967 34.2211C25.0211 34.2249 25.045 34.2268 25.0697 34.2283C25.0856 34.2291 25.1004 34.2329 25.1164 34.2329C25.1323 34.2329 25.1471 34.2291 25.1627 34.2283C25.187 34.2268 25.2113 34.2249 25.2352 34.2211C25.2576 34.2177 25.2793 34.2135 25.3009 34.2082C25.3229 34.2028 25.345 34.1952 25.3666 34.1876C25.3989 34.1762 25.4304 34.1633 25.4604 34.1481C25.4733 34.1416 25.4862 34.1363 25.4988 34.1294L33.6149 29.46C33.6225 29.4555 33.6286 29.4494 33.6362 29.4448C33.6594 29.4304 33.681 29.414 33.7027 29.3969C33.7217 29.3821 33.7406 29.3676 33.7577 29.3512C33.7756 29.3341 33.7915 29.3159 33.8079 29.2972C33.8246 29.2782 33.8413 29.2596 33.8557 29.239C33.8698 29.2193 33.8819 29.198 33.8941 29.1767C33.9062 29.1554 33.9191 29.1344 33.929 29.112C33.9392 29.0892 33.9472 29.0656 33.9552 29.042C33.9632 29.0184 33.9715 28.9952 33.9772 28.9709C33.9825 28.9481 33.9856 28.9245 33.989 28.9009C33.9928 28.8735 33.9962 28.8465 33.9973 28.8187C33.9977 28.81 34 28.8016 34 28.7929V19.4518C34 19.4054 33.9943 19.3598 33.9863 19.3149C33.9841 19.3031 33.9818 19.2917 33.9795 19.2799C33.9696 19.2373 33.9575 19.1951 33.9408 19.1551C33.9389 19.1505 33.9362 19.1464 33.9343 19.1418C33.9184 19.1057 33.8994 19.0711 33.8781 19.038C33.8717 19.0281 33.8652 19.0182 33.8584 19.0087C33.8333 18.9733 33.8063 18.9391 33.7756 18.9083C33.7752 18.9079 33.7748 18.9075 33.7744 18.9071C33.7444 18.8771 33.7106 18.8504 33.6757 18.8253C33.6655 18.8181 33.6548 18.8113 33.6442 18.8044C33.6343 18.7983 33.6252 18.7907 33.6153 18.785L25.8842 14.3355V5.44021C25.8842 5.3938 25.8785 5.34816 25.8705 5.30327C25.8683 5.29148 25.866 5.28007 25.8637 5.26828C25.8538 5.22568 25.8417 5.18346 25.825 5.14352C25.8231 5.13895 25.8204 5.13477 25.8185 5.13021C25.8026 5.09407 25.7836 5.05946 25.7623 5.02637C25.7558 5.01648 25.7494 5.00659 25.7426 4.99708C25.7175 4.9617 25.6905 4.92747 25.6598 4.89666C25.6594 4.89628 25.659 4.8959 25.6586 4.89552C25.6286 4.86547 25.5948 4.83884 25.5599 4.81374C25.5497 4.80651 25.539 4.79967 25.5284 4.79282C25.5185 4.78673 25.5094 4.77913 25.4995 4.77342L17.3826 0.102129C17.1456 -0.0340429 16.8544 -0.0340429 16.6174 0.102129L8.50161 4.77342C8.49136 4.77913 8.48263 4.78635 8.47275 4.79282C8.46212 4.79967 8.45149 4.80651 8.44124 4.81374C8.40592 4.83884 8.3725 4.86547 8.3425 4.89552C8.34212 4.8959 8.34174 4.89628 8.34136 4.89666C8.31061 4.92747 8.28364 4.9617 8.25858 4.99708C8.25175 5.00659 8.24529 5.01648 8.23883 5.02637C8.21757 5.05984 8.1982 5.09407 8.18225 5.13059C8.18035 5.13515 8.1777 5.13895 8.1758 5.14352C8.15909 5.18384 8.14694 5.22568 8.13706 5.26866C8.13441 5.28007 8.13213 5.29186 8.13023 5.30365C8.12225 5.34854 8.11656 5.39418 8.11656 5.44059V14.3359L0.385436 18.785C0.375183 18.7907 0.366449 18.7979 0.356576 18.8044C0.345943 18.8113 0.33531 18.8181 0.325057 18.8253C0.289741 18.8504 0.256324 18.8771 0.226325 18.9071C0.225945 18.9075 0.225565 18.9079 0.225186 18.9083C0.194427 18.9391 0.167465 18.9733 0.142402 19.0087C0.135187 19.0182 0.128732 19.0281 0.122276 19.038C0.101011 19.0714 0.0816442 19.1057 0.0656951 19.1422C0.0637964 19.1467 0.0615179 19.1505 0.0596192 19.1551C0.0429106 19.1954 0.030759 19.2373 0.0208858 19.2803C0.0182276 19.2917 0.0159491 19.3035 0.0140504 19.3152C0.0060759 19.3601 0.000379712 19.4058 0.000379712 19.4522L0 28.7925ZM1.53605 20.7808L2.25338 21.1935L1.53605 21.912V20.7808ZM1.53605 24.0877L3.63297 21.9873L4.40992 22.4343L1.53605 25.3129V24.0877ZM9.65223 6.76921L10.3692 7.18191L9.65223 7.90004V6.76921ZM9.65223 10.0757L11.7491 7.97573L12.5261 8.42267L9.65261 11.3013L9.65223 10.0757ZM32.4643 20.7808V21.9116L31.747 21.1931L32.4643 20.7808ZM30.3678 21.9873L32.4647 24.0877V25.3129L29.5908 22.4343L30.3678 21.9873ZM28.2109 23.2281L32.4643 27.4886V28.3475L32.2319 28.481L27.4343 23.675L28.2109 23.2281ZM30.0758 29.7217L25.8842 25.5232V24.5666L26.0543 24.4685L30.8523 29.2744L30.0758 29.7217ZM27.9188 30.9625L25.8842 28.9245V27.6993L28.6958 30.5155L27.9188 30.9625ZM21.5366 30.5152L24.3482 27.6989V28.9241L22.3135 30.9621L21.5366 30.5152ZM19.38 29.2748L24.178 24.4688L24.3482 24.5666V25.5232L20.157 29.7217L19.38 29.2748ZM24.3482 31.0998V32.1329L23.6931 31.7559L24.3482 31.0998ZM25.8842 32.1329V31.0998L26.5393 31.7559L25.8842 32.1329ZM18.0004 28.481L17.768 28.3475V27.4886L22.0215 23.2281L22.7984 23.675L18.0004 28.481ZM16.2324 10.555V11.5116L12.0408 15.7097L11.2638 15.2628L16.0619 10.4569L16.2324 10.555ZM16.2324 13.6873V14.9125L14.1977 16.9505L13.4208 16.5036L16.2324 13.6873ZM16.2324 17.0882V18.1213L15.5773 17.7443L16.2324 17.0882ZM17.768 25.3125V24.0873L19.8649 21.9869L20.6419 22.4339L17.768 25.3125ZM17.768 21.912V20.7812L18.4854 21.1939L17.768 21.912ZM17.768 18.1213V17.0882L18.4231 17.7443L17.768 18.1213ZM19.8027 16.9505L17.768 14.9125V13.6873L20.5796 16.5036L19.8027 16.9505ZM21.9596 15.7097L17.768 11.5116V10.555L17.9381 10.4573L22.7362 15.2632L21.9596 15.7097ZM24.3482 6.76921V7.90004L23.6312 7.18191L24.3482 6.76921ZM22.2516 7.97535L24.3485 10.0754V11.3005L21.475 8.42191L22.2516 7.97535ZM20.0951 9.21611L24.3482 13.4766V14.3355L24.1158 14.469L19.3181 9.66304L20.0951 9.21611ZM9.88463 14.469L9.65223 14.3355V13.4766L13.9053 9.21611L14.6823 9.66304L9.88463 14.469ZM16.2324 20.7808V21.9116L15.515 21.1931L16.2324 20.7808ZM14.1354 21.9873L16.2324 24.0877V25.3129L13.3585 22.4343L14.1354 21.9873ZM11.9789 23.2281L16.2324 27.4886V28.3475L16 28.481L11.2019 23.675L11.9789 23.2281ZM13.8434 29.7217L9.65223 25.5232V24.5666L9.82235 24.4688L14.6204 29.2748L13.8434 29.7217ZM11.6869 30.9625L9.65223 28.9245V27.6993L12.4638 30.5155L11.6869 30.9625ZM5.30459 30.5152L8.11618 27.6989V28.9241L6.08153 30.9621L5.30459 30.5152ZM3.14804 29.2748L7.94605 24.4688L8.11618 24.567V25.5236L3.92461 29.7217L3.14804 29.2748ZM8.11618 31.0998V32.1329L7.46113 31.7559L8.11618 31.0998ZM9.65223 32.1329V31.0998L10.3073 31.7559L9.65223 32.1329ZM1.76807 28.481L1.53567 28.3475V27.4886L5.78913 23.2281L6.56608 23.675L1.76807 28.481ZM25.1164 23.2342L18.5408 19.451L25.1164 15.6679L31.6908 19.4518L25.1164 23.2342ZM17.0002 1.65631L23.5746 5.44021L17.0002 9.22258L10.4258 5.44021L17.0002 1.65631ZM8.88401 15.6679L15.4596 19.451L8.88401 23.2342L2.30958 19.4518L8.88401 15.6679Z" fill="white"/>
</svg>
