<svg width="31" height="31" viewBox="0 0 31 31" fill="none" xmlns="http://www.w3.org/2000/svg">
<rect width="31" height="31" fill="white" fill-opacity="0.16"/>
<path d="M24.296 14.24C23.592 13.848 22.876 13.588 22.148 13.46V20H19.772V13.46C19.028 13.588 18.312 13.848 17.624 14.24L16.832 12.512C17.416 12.16 18.06 11.892 18.764 11.708C19.476 11.524 20.208 11.432 20.96 11.432C21.712 11.432 22.44 11.524 23.144 11.708C23.856 11.892 24.504 12.16 25.088 12.512L24.296 14.24Z" fill="#33A2FF"/>
<path d="M10.764 11.432C11.556 11.432 12.252 11.592 12.852 11.912C13.46 12.224 13.928 12.684 14.256 13.292C14.592 13.892 14.76 14.616 14.76 15.464V20H12.384V18.14H9.108V20H6.768V15.464C6.768 14.616 6.932 13.892 7.26 13.292C7.596 12.684 8.064 12.224 8.664 11.912C9.272 11.592 9.972 11.432 10.764 11.432ZM12.384 16.304V15.26C12.384 14.644 12.236 14.18 11.94 13.868C11.644 13.556 11.248 13.4 10.752 13.4C10.248 13.4 9.848 13.556 9.552 13.868C9.256 14.18 9.108 14.644 9.108 15.26V16.304H12.384Z" fill="#B4C7D7"/>
</svg>
