<svg width="33" height="47" viewBox="0 0 33 47" fill="none" xmlns="http://www.w3.org/2000/svg">
<path d="M16.5 46.3C20.7329 46.3 24.7924 44.6185 27.7855 41.6254C30.7785 38.6324 32.46 34.5729 32.46 30.34V16.66C32.46 12.4272 30.7785 8.36767 27.7855 5.37459C24.7924 2.38151 20.7329 0.700012 16.5 0.700012C12.2672 0.700012 8.2077 2.38151 5.21461 5.37459C2.22153 8.36767 0.540039 12.4272 0.540039 16.66V30.34C0.540039 34.5729 2.22153 38.6324 5.21461 41.6254C8.2077 44.6185 12.2672 46.3 16.5 46.3ZM2.82004 16.66C2.82004 13.0319 4.26132 9.55229 6.82682 6.98679C9.39232 4.42129 12.8719 2.98001 16.5 2.98001C20.1282 2.98001 23.6078 4.42129 26.1733 6.98679C28.7388 9.55229 30.18 13.0319 30.18 16.66V30.34C30.18 33.9682 28.7388 37.4477 26.1733 40.0132C23.6078 42.5787 20.1282 44.02 16.5 44.02C12.8719 44.02 9.39232 42.5787 6.82682 40.0132C4.26132 37.4477 2.82004 33.9682 2.82004 30.34V16.66Z" fill="#33A2FF"/>
<path d="M15.36 22.93H15.4626L15.6906 23.1694C15.7966 23.2763 15.9226 23.3611 16.0616 23.4189C16.2005 23.4768 16.3495 23.5066 16.5 23.5066C16.6505 23.5066 16.7995 23.4768 16.9384 23.4189C17.0773 23.3611 17.2034 23.2763 17.3094 23.1694L17.5374 22.93H17.64V22.8274L24.1494 16.3294L22.5306 14.7106L17.64 19.6126V7.54001H15.36V19.6126L10.4694 14.7106L8.85059 16.3294L15.36 22.8274V22.93Z" fill="#33A2FF"/>
</svg>
