<svg width="40" height="40" viewBox="0 0 40 40" fill="none" xmlns="http://www.w3.org/2000/svg">
<g clip-path="url(#clip0_11_432)">
<path d="M20 40C31.0457 40 40 31.0457 40 20C40 8.9543 31.0457 0 20 0C8.9543 0 0 8.9543 0 20C0 31.0457 8.9543 40 20 40Z" fill="#6F3FAA"/>
<path d="M31.5522 13.5114V13.4818C31.284 12.3955 30.584 11.2727 29.6658 10.3273C28.5931 9.21819 27.2272 8.34774 25.9226 8.06592H25.8954C22.005 7.32047 18.0085 7.32047 14.1181 8.06592H14.0908C11.6681 8.59092 9.03855 11.1227 8.45219 13.4818V13.5114C7.73176 16.782 7.73176 20.1703 8.45219 23.4409V23.4682C8.87037 25.15 10.3249 26.9182 12.0022 27.9864C12.55 28.3433 13.1462 28.6196 13.7726 28.8068V31.4387C13.7735 31.649 13.837 31.8543 13.955 32.0284C14.073 32.2025 14.2402 32.3375 14.4352 32.4163C14.6302 32.495 14.8443 32.5139 15.0501 32.4705C15.2559 32.4272 15.4442 32.3235 15.5908 32.1727L18.259 29.4C18.8363 29.4318 19.4181 29.45 19.9954 29.45C21.9715 29.4494 23.9431 29.2622 25.884 28.8909H25.9113C28.3272 28.3637 30.959 25.8318 31.5408 23.4727V23.4455C32.2657 20.1742 32.2695 16.7843 31.5522 13.5114ZM29.4408 22.9546C29.0499 24.4932 27.0545 26.4091 25.4658 26.7614C23.4024 27.1567 21.3024 27.3281 19.2022 27.2727C19.1817 27.2715 19.1613 27.2749 19.1424 27.2828C19.1235 27.2907 19.1066 27.3028 19.0931 27.3182L17.1454 29.3182L15.0726 31.4432C15.0395 31.4782 14.9966 31.5025 14.9495 31.5129C14.9023 31.5233 14.8532 31.5193 14.8084 31.5014C14.7636 31.4835 14.7252 31.4526 14.6981 31.4126C14.6711 31.3727 14.6567 31.3255 14.6567 31.2773V26.9136C14.6568 26.8786 14.6445 26.8446 14.6221 26.8176C14.5997 26.7906 14.5685 26.7723 14.534 26.7659C14.2027 26.6873 13.8832 26.565 13.584 26.4023C12.234 25.6818 10.8726 24.2046 10.559 22.9546C9.90937 19.9982 9.90937 16.936 10.559 13.9796C10.9476 12.4477 12.9545 10.5364 14.5317 10.1818C18.1437 9.49073 21.8539 9.49073 25.4658 10.1818C26.3408 10.3773 27.3408 11.0432 28.1226 11.8614C28.7658 12.5273 29.259 13.2955 29.4408 13.9864C30.0895 16.9406 30.0895 20.0003 29.4408 22.9546Z" fill="white"/>
<path d="M25.5226 23.182C25.2273 23.8559 24.7197 24.4146 24.0772 24.7729C23.8756 24.8585 23.6663 24.9247 23.4522 24.9707C23.209 24.8979 22.9772 24.8479 22.7703 24.7593C21.0475 24.0889 19.4437 23.1458 18.0203 21.9661C17.5975 21.6056 17.2004 21.216 16.8317 20.8002C15.9213 19.7518 15.1568 18.5852 14.559 17.332C14.2681 16.7389 14.0226 16.1252 13.7726 15.5139C13.5453 14.957 13.8817 14.3775 14.2272 13.9616C14.5653 13.5759 14.9812 13.2661 15.4476 13.0525C15.6117 12.97 15.7995 12.9476 15.9785 12.9891C16.1574 13.0306 16.3161 13.1334 16.4272 13.2798C17.0078 13.9322 17.5196 14.6428 17.9544 15.4002C18.0914 15.6205 18.1383 15.885 18.0854 16.1389C18.0325 16.3928 17.8839 16.6166 17.6703 16.7639C17.5567 16.8434 17.4431 16.9343 17.3453 17.0229C17.249 17.0943 17.1659 17.182 17.0999 17.282C17.0429 17.3757 17.0083 17.4812 16.9989 17.5904C16.9894 17.6996 17.0053 17.8095 17.0453 17.9116C17.484 19.1184 18.1499 20.1252 19.1453 20.832C19.4822 21.0702 19.8452 21.2693 20.2272 21.4252C20.4766 21.5609 20.7569 21.6298 21.0408 21.6252C21.5363 21.5661 21.6999 21.0184 22.0453 20.7366C22.2039 20.6068 22.4001 20.5315 22.6049 20.5221C22.8096 20.5127 23.0119 20.5696 23.1817 20.6843C23.5499 20.9116 23.9044 21.1684 24.259 21.4184C24.6097 21.6577 24.9473 21.9157 25.2703 22.1911C25.4214 22.3009 25.5294 22.46 25.5755 22.641C25.6215 22.822 25.6028 23.0134 25.5226 23.182ZM20.6522 12.2911H20.3613C20.4544 12.2866 20.5522 12.2911 20.6522 12.2911Z" fill="white"/>
<path d="M25.6816 19.1024C25.4544 19.1024 25.343 18.9092 25.3271 18.6979C25.2976 18.282 25.2748 17.8638 25.218 17.4501C25.1198 16.7522 24.8767 16.0826 24.5044 15.4842C24.1217 14.8609 23.6124 14.3247 23.0095 13.9105C22.4066 13.4963 21.7235 13.2133 21.0044 13.0797C20.6771 13.0206 20.343 13.007 20.0135 12.9729C19.8044 12.9501 19.5294 12.9365 19.4839 12.6774C19.4771 12.6271 19.4812 12.5759 19.4957 12.5273C19.5103 12.4786 19.5351 12.4336 19.5684 12.3954C19.6018 12.3571 19.6429 12.3263 19.6891 12.3052C19.7353 12.2841 19.7854 12.2731 19.8362 12.2729C19.8907 12.2697 19.9453 12.2697 19.9998 12.2729C20.9932 12.2813 21.9693 12.5345 22.8414 13.0103C23.7136 13.486 24.4549 14.1695 24.9998 15.0001C25.43 15.6697 25.7221 16.4184 25.8589 17.2024C25.9453 17.6933 25.9771 18.1979 26.0157 18.6979C26.0235 18.7469 26.0207 18.797 26.0077 18.8448C25.9946 18.8927 25.9715 18.9372 25.9399 18.9755C25.9083 19.0137 25.869 19.0448 25.8244 19.0667C25.7799 19.0886 25.7312 19.1008 25.6816 19.1024Z" fill="white"/>
<path d="M24.4522 18.0409C24.4509 18.1084 24.4417 18.1756 24.4249 18.241C24.405 18.3067 24.3654 18.3647 24.3114 18.4071C24.2575 18.4495 24.1917 18.4742 24.1232 18.4779C24.0547 18.4817 23.9866 18.4642 23.9284 18.4279C23.8701 18.3916 23.8245 18.3382 23.7976 18.275C23.7726 18.1833 23.7611 18.0883 23.7635 17.9932C23.7688 17.4849 23.6682 16.981 23.4681 16.5137C23.4226 16.4137 23.3726 16.3114 23.3158 16.2137C22.9905 15.6529 22.5076 15.2001 21.9272 14.9114C21.577 14.7461 21.2051 14.6313 20.8226 14.5705C20.6544 14.5432 20.4862 14.5273 20.3181 14.5046C20.2743 14.5024 20.2314 14.4912 20.1921 14.4718C20.1528 14.4524 20.1179 14.4251 20.0896 14.3917C20.0613 14.3582 20.0401 14.3193 20.0274 14.2774C20.0147 14.2354 20.0108 14.1913 20.0158 14.1478C20.0158 14.1032 20.0253 14.0592 20.0435 14.0186C20.0617 13.9779 20.0884 13.9416 20.1216 13.912C20.1549 13.8824 20.194 13.8601 20.2365 13.8467C20.279 13.8333 20.3238 13.829 20.3681 13.8341C21.0354 13.8599 21.6892 14.0305 22.284 14.3341C23.0103 14.6996 23.6028 15.285 23.9772 16.0069C24.188 16.4283 24.3292 16.8812 24.3953 17.3478C24.4076 17.4086 24.4167 17.4701 24.4226 17.5319C24.434 17.6682 24.4385 17.8046 24.4499 17.9728C24.4499 17.9887 24.4522 18.0091 24.4522 18.0409Z" fill="white"/>
<path d="M22.8954 17.7271C22.8826 17.7847 22.8527 17.8371 22.8098 17.8776C22.7669 17.9181 22.7128 17.9449 22.6545 17.9543H22.6045C22.5301 17.9592 22.4561 17.9396 22.3937 17.8986C22.3314 17.8576 22.2841 17.7974 22.2591 17.7271C22.2449 17.6898 22.2358 17.6508 22.2318 17.6112C22.2198 17.4582 22.1971 17.3063 22.1636 17.1566C22.096 16.8535 21.9238 16.584 21.6772 16.3953C21.558 16.3097 21.4251 16.2451 21.2841 16.2043C21.1045 16.1521 20.9159 16.1657 20.7386 16.1225C20.651 16.107 20.5731 16.0574 20.522 15.9845C20.4709 15.9117 20.4507 15.8216 20.4659 15.7339C20.4828 15.6499 20.5297 15.575 20.5979 15.5231C20.6661 15.4712 20.7509 15.446 20.8363 15.4521C21.8772 15.5271 22.6545 16.0271 22.8545 17.143C22.8751 17.2466 22.8895 17.3513 22.8977 17.4566C22.9104 17.5464 22.9097 17.6375 22.8954 17.7271Z" fill="white"/>
</g>
<defs>
<clipPath id="clip0_11_432">
<rect width="40" height="40" fill="white"/>
</clipPath>
</defs>
</svg>
