<svg width="40" height="40" viewBox="0 0 40 40" fill="none" xmlns="http://www.w3.org/2000/svg">
<g clip-path="url(#clip0_11_443)">
<path d="M20 40C31.0457 40 40 31.0457 40 20C40 8.9543 31.0457 0 20 0C8.9543 0 0 8.9543 0 20C0 31.0457 8.9543 40 20 40Z" fill="#29A71A"/>
<path d="M28.8182 11.1816C26.7374 9.07998 23.9741 7.79114 21.0267 7.54754C18.0792 7.30393 15.1418 8.12159 12.7442 9.85303C10.3465 11.5845 8.64654 14.1157 7.95083 16.9902C7.25513 19.8647 7.60951 22.8931 8.95005 25.5293L7.63414 31.9179C7.62049 31.9815 7.6201 32.0472 7.633 32.111C7.64591 32.1747 7.67183 32.2351 7.70914 32.2884C7.7638 32.3692 7.84182 32.4315 7.93279 32.4668C8.02375 32.5021 8.12334 32.5089 8.21823 32.4861L14.4796 31.002C17.1084 32.3086 20.1155 32.6402 22.9658 31.9378C25.8161 31.2354 28.3248 29.5445 30.0454 27.166C31.766 24.7876 32.5871 21.8758 32.3623 18.9488C32.1376 16.0218 30.8818 13.2695 28.8182 11.1816ZM26.866 26.7634C25.4262 28.1991 23.5723 29.1468 21.5654 29.473C19.5585 29.7992 17.4999 29.4874 15.6796 28.5816L14.8069 28.1498L10.9682 29.0588L10.9796 29.0111L11.7751 25.1475L11.3478 24.3043C10.4177 22.4776 10.0896 20.4035 10.4105 18.3789C10.7314 16.3544 11.6848 14.4834 13.1341 13.0338C14.9553 11.2133 17.425 10.1905 20.0001 10.1905C22.5751 10.1905 25.0448 11.2133 26.866 13.0338C26.8815 13.0516 26.8982 13.0683 26.916 13.0838C28.7145 14.9091 29.7186 17.3714 29.7092 19.9339C29.6999 22.4964 28.6778 24.9513 26.866 26.7634Z" fill="white"/>
<path d="M26.5249 23.9293C26.0545 24.6703 25.3113 25.5771 24.3772 25.8021C22.7408 26.1975 20.2295 25.8157 17.1045 22.9021L17.0658 22.868C14.3181 20.3203 13.6045 18.1998 13.7772 16.518C13.8727 15.5634 14.6681 14.6998 15.3386 14.1362C15.4446 14.0457 15.5703 13.9813 15.7056 13.9481C15.8409 13.9149 15.9822 13.9138 16.118 13.945C16.2538 13.9761 16.3805 14.0386 16.4879 14.1274C16.5952 14.2163 16.6803 14.329 16.7363 14.4566L17.7477 16.7293C17.8134 16.8767 17.8377 17.0392 17.8181 17.1993C17.7985 17.3595 17.7356 17.5113 17.6363 17.6384L17.1249 18.3021C17.0152 18.4391 16.949 18.6058 16.9348 18.7808C16.9206 18.9558 16.9592 19.131 17.0454 19.2839C17.3317 19.7862 18.0181 20.5248 18.7795 21.2089C19.634 21.9816 20.5817 22.6884 21.1817 22.9293C21.3423 22.9949 21.5188 23.0109 21.6885 22.9753C21.8583 22.9396 22.0134 22.854 22.134 22.7293L22.7272 22.1316C22.8417 22.0188 22.984 21.9383 23.1397 21.8983C23.2954 21.8584 23.4589 21.8605 23.6136 21.9043L26.0158 22.5862C26.1484 22.6268 26.2698 22.6972 26.3709 22.792C26.4721 22.8868 26.5502 23.0035 26.5993 23.1331C26.6484 23.2627 26.6673 23.4018 26.6544 23.5398C26.6415 23.6778 26.5972 23.8111 26.5249 23.9293Z" fill="white"/>
</g>
<defs>
<clipPath id="clip0_11_443">
<rect width="40" height="40" fill="white"/>
</clipPath>
</defs>
</svg>
